<?xml version="1.0" encoding="utf-8"?>
<!-- Generator: Adobe Illustrator 24.2.3, SVG Export Plug-In . SVG Version: 6.00 Build 0)  -->
<svg version="1.1" id="Layer_1" xmlns="http://www.w3.org/2000/svg" xmlns:xlink="http://www.w3.org/1999/xlink" x="0px" y="0px"
	 viewBox="0 0 500 500" style="enable-background:new 0 0 500 500;" xml:space="preserve">
<style type="text/css">
	.st0{fill:#5382A1;}
	.st1{fill:#E76F00;}
</style>
<g>
	<path class="st0" d="M186.1,382.9c0,0-18.6,10.8,13.2,14.5c38.5,4.4,58.2,3.8,100.7-4.3c0,0,11.2,7,26.7,13.1
		C231.5,447,111.3,403.8,186.1,382.9"/>
	<path class="st0" d="M174.5,329.7c0,0-20.8,15.4,11,18.7c41.1,4.2,73.6,4.6,129.9-6.2c0,0,7.8,7.9,20,12.2
		C220.3,388,92.1,357.1,174.5,329.7"/>
	<path class="st1" d="M272.5,239.4c23.4,27-6.2,51.3-6.2,51.3s59.5-30.7,32.2-69.2c-25.5-35.9-45.1-53.7,60.9-115.2
		C359.4,106.3,193,147.9,272.5,239.4"/>
	<path class="st0" d="M398.3,422.3c0,0,13.7,11.3-15.1,20.1c-54.9,16.6-228.6,21.7-276.9,0.7c-17.3-7.5,15.2-18,25.4-20.2
		c10.7-2.3,16.8-1.9,16.8-1.9c-19.3-13.6-124.7,26.7-53.5,38.2C289,490.6,448.7,445,398.3,422.3"/>
	<path class="st0" d="M195,274.6c0,0-88.4,21-31.3,28.6c24.1,3.2,72.1,2.5,116.9-1.3c36.6-3.1,73.3-9.6,73.3-9.6
		s-12.9,5.5-22.2,11.9c-89.7,23.6-263,12.6-213.1-11.5C160.7,272.3,195,274.6,195,274.6"/>
	<path class="st0" d="M353.5,363.2c91.2-47.4,49-92.9,19.6-86.8c-7.2,1.5-10.4,2.8-10.4,2.8s2.7-4.2,7.8-6
		c58.2-20.5,103,60.4-18.8,92.4C351.7,365.6,353.1,364.3,353.5,363.2"/>
	<path class="st1" d="M298.5,7c0,0,50.5,50.5-47.9,128.2c-78.9,62.3-18,97.9,0,138.5c-46.1-41.6-79.9-78.2-57.2-112.2
		C226.7,111.5,318.9,87.3,298.5,7"/>
	<path class="st0" d="M204,491.6c87.5,5.6,222-3.1,225.2-44.5c0,0-6.1,15.7-72.4,28.2c-74.7,14.1-166.9,12.4-221.5,3.4
		C135.3,478.6,146.4,487.9,204,491.6"/>
</g>
</svg>
